<svg width="48" height="48" viewBox="0 0 48 48" fill="none" xmlns="http://www.w3.org/2000/svg">
<path opacity="0.15" d="M23.3 45.9C16.9488 45.9 11.8 45.2284 11.8 44.4C11.8 43.5715 16.9488 42.9 23.3 42.9C29.6513 42.9 34.8 43.5715 34.8 44.4C34.8 45.2284 29.6513 45.9 23.3 45.9Z" fill="#45413C"/>
<path d="M13 27.7C13.3 24.3 9 22.2 9 22.2V17.2C9 17.2 15.8 15 16 10.2C16.2 6.09998 9.9 4.39998 4.8 3.09998C4.2 2.99998 4.3 2.09998 4.9 2.09998C10.3 2.19998 19.6 2.89998 27 5.69998C32.8 7.89998 36 11.7 37.9 14.9C39.2 17.2 41.2 18.9 43.7 19.9L45.4 20.5C45.7 20.6 46 21 46 21.4V22.4C46 22.9 45.7 23.3 45.2 23.4L43.7 23.7C40.8 24.3 38.3 26 36.4 28.4C34.3 31.1 31 33.6 26 34.2C19.4 35.1 12.7 33.4 9.9 32.6C9.5 32.5 9.4 31.9 9.8 31.7C11 31.1 12.8 29.9 13 27.7Z" fill="#4AEFF7"/>
<path d="M45.2 23.4L43.7 23.7C43.6 23.7 43.5 23.8 43.3 23.8C41 22.9 39.1 21.2 37.8 19C36 15.8 32.7 12 26.9 9.79998C22.9 8.29998 18.4 7.39998 14.2 6.89998C12.2 4.99998 8.2 3.99998 4.8 3.09998C4.2 2.99998 4.3 2.09998 4.9 2.09998C10.3 2.19998 19.6 2.89998 27 5.69998C32.8 7.89998 36 11.7 37.9 14.9C39.2 17.2 41.2 18.9 43.7 19.9L45.4 20.5C45.7 20.6 46 21 46 21.4V22.4C46 22.8 45.7 23.3 45.2 23.4Z" fill="#A6FBFF"/>
<path d="M15.4999 12.2C15.8999 12.8 16.0999 13.5 15.9999 14.2C15.7999 19 8.99991 21.2 8.99991 21.2V17.1C8.99991 17.2 13.7999 15.6 15.4999 12.2Z" fill="#A6FBFF"/>
<path d="M13 27.7C13.3 24.3 9 22.2 9 22.2V17.2C9 17.2 15.8 15 16 10.2C16.2 6.09998 9.9 4.39998 4.8 3.09998C4.2 2.99998 4.3 2.09998 4.9 2.09998C10.3 2.19998 19.6 2.89998 27 5.69998C32.8 7.89998 36 11.7 37.9 14.9C39.2 17.2 41.2 18.9 43.7 19.9L45.4 20.5C45.7 20.6 46 21 46 21.4V22.4C46 22.9 45.7 23.3 45.2 23.4L43.7 23.7C40.8 24.3 38.3 26 36.4 28.4C34.3 31.1 31 33.6 26 34.2C19.4 35.1 12.7 33.4 9.9 32.6C9.5 32.5 9.4 31.9 9.8 31.7C11 31.1 12.8 29.9 13 27.7Z" stroke="#45413C" stroke-miterlimit="10" stroke-linecap="round" stroke-linejoin="round"/>
<path d="M17.1 34.1C18.2 31.4 19.5 26.8 19.5 20.2C19.5 12.4 17.9 6.29998 16.9 3.09998C18.3 3.29998 19.8 3.59998 21.2 3.89998C22.1 6.99998 23.5 13.1 23.5 20.1C23.5 26 22.3 31.1 21.4 34.3C19.9 34.4 18.4 34.3 17.1 34.1Z" fill="#F0F0F0"/>
<path d="M16.9 3.09998C17.3 4.19998 17.7 5.59998 18.1 7.39998C19.5 7.59998 20.9 7.89998 22.3 8.29998C21.9 6.49998 21.6 5.09998 21.3 3.99998C19.8 3.59998 18.3 3.39998 16.9 3.09998Z" fill="white"/>
<path d="M17.1 34.1C18.2 31.4 19.5 26.8 19.5 20.2C19.5 12.4 17.9 6.29998 16.9 3.09998C18.3 3.29998 19.8 3.59998 21.2 3.89998C22.1 6.99998 23.5 13.1 23.5 20.1C23.5 26 22.3 31.1 21.4 34.3C19.9 34.4 18.4 34.3 17.1 34.1Z" stroke="#45413C" stroke-miterlimit="10" stroke-linecap="round" stroke-linejoin="round"/>
<path d="M26.5 33.2C27.7 27.3 28 24.8 27.5 18.2C27.2 13.7 26.6 8.7 25 5C25.7 5.2 26.4 5.4 27 5.7C29 6.5 30.7 7.4 32.1 8.5C32.8 11.3 33.5 15.4 33.5 20.7C33.5 30.7 31.5 35.9 27.5 38.7C25.1 40.4 23.1 41 21.6 41.2C21.1 41.3 20.8 40.6 21.3 40.3C23.1 39.1 25.7 36.9 26.5 33.2Z" fill="#FFE500"/>
<path d="M25 5C25.6 6.4 26.1 7.9 26.4 9.6C26.6 9.7 26.8 9.7 27 9.8C29.4 10.7 31.4 11.9 33 13.3C32.8 11.4 32.4 9.8 32.1 8.5C30.7 7.4 29 6.5 27 5.7C26.3 5.4 25.7 5.2 25 5Z" fill="#FFF48C"/>
<path d="M26.5 33.2C27.7 27.3 28 24.8 27.5 18.2C27.2 13.7 26.6 8.7 25 5C25.7 5.2 26.4 5.4 27 5.7C29 6.5 30.7 7.4 32.1 8.5C32.8 11.3 33.5 15.4 33.5 20.7C33.5 30.7 31.5 35.9 27.5 38.7C25.1 40.4 23.1 41 21.6 41.2C21.1 41.3 20.8 40.6 21.3 40.3C23.1 39.1 25.7 36.9 26.5 33.2Z" stroke="#45413C" stroke-miterlimit="10" stroke-linecap="round" stroke-linejoin="round"/>
<path d="M9 17.2C7.1 17.6 5.2 13.6 4 13.2C2.8 12.8 2 15.5 2 19.2C2 22 2.2 25.3 3.5 25.2C5 25.1 6.2 20.9 9 22.2V17.2Z" fill="#FFE500"/>
<path d="M2.7 15.3C2.6 15.3 2.5 15.3 2.4 15.3C2.8 13.8 3.3 13 4 13.2C5.2 13.6 7.1 17.6 9 17.2V19.3C6.6 19.7 4.2 15.7 2.7 15.3Z" fill="#FFF48C"/>
<path d="M9 17.2C7.1 17.6 5.2 13.6 4 13.2C2.8 12.8 2 15.5 2 19.2C2 22 2.2 25.3 3.5 25.2C5 25.1 6.2 20.9 9 22.2V17.2Z" stroke="#45413C" stroke-miterlimit="10" stroke-linecap="round" stroke-linejoin="round"/>
<path d="M35.9 20.2C35.2925 20.2 34.8 19.7075 34.8 19.1C34.8 18.4925 35.2925 18 35.9 18C36.5075 18 37 18.4925 37 19.1C37 19.7075 36.5075 20.2 35.9 20.2Z" fill="#45413C"/>
<path d="M31.0999 24.4C30.3819 24.4 29.7999 23.818 29.7999 23.1C29.7999 22.382 30.3819 21.8 31.0999 21.8C31.8179 21.8 32.3999 22.382 32.3999 23.1C32.3999 23.818 31.8179 24.4 31.0999 24.4Z" fill="#FFFACF"/>
<path d="M6 18.2C6 18.2 3.9 18.1 2.5 17.2Z" fill="#FFE500"/>
<path d="M6 18.2C6 18.2 3.9 18.1 2.5 17.2" stroke="#45413C" stroke-miterlimit="10" stroke-linecap="round" stroke-linejoin="round"/>
<path d="M6 20.2C6 20.2 3.8 20.2 2.5 21.2Z" fill="#FFE500"/>
<path d="M6 20.2C6 20.2 3.8 20.2 2.5 21.2" stroke="#45413C" stroke-miterlimit="10" stroke-linecap="round" stroke-linejoin="round"/>
</svg>
