<svg width="91" height="91" viewBox="0 0 91 91" fill="none" xmlns="http://www.w3.org/2000/svg">
<g clip-path="url(#clip0_43631_30)">
<path d="M64.1677 27.5875C64.1677 27.5875 56.5657 18.1505 41.2207 18.1505C35.7837 18.1505 37.7787 28.6915 37.7787 28.6915" fill="#E4E4E6"/>
<path d="M35.5906 29.1055L39.9666 28.2775C39.5366 25.9815 39.4006 21.9775 40.4726 20.6875C40.6356 20.4915 40.8106 20.3765 41.2206 20.3765C55.3366 20.3765 62.3636 28.8975 62.4336 28.9835L65.9016 26.1895C65.5636 25.7715 57.4446 15.9235 41.2206 15.9235C39.5296 15.9235 38.0846 16.5885 37.0416 17.8475C34.2656 21.1975 35.3446 27.8135 35.5906 29.1055Z" fill="#5094F9"/>
<path d="M64.1677 63.4685C64.1677 63.4685 56.5657 72.9035 41.2207 72.9035C35.7837 72.9035 37.7787 62.3635 37.7787 62.3635" fill="#E4E4E6"/>
<path d="M41.2206 75.1305C57.4436 75.1305 65.5636 65.2845 65.9016 64.8645L62.4386 62.0655C62.1506 62.4155 55.2296 70.6755 41.2206 70.6755C40.8106 70.6755 40.6356 70.5635 40.4726 70.3645C39.4006 69.0745 39.5366 65.0705 39.9666 62.7715L35.5906 61.9465C35.3446 63.2395 34.2656 69.8535 37.0416 73.2045C38.0846 74.4655 39.5296 75.1305 41.2206 75.1305Z" fill="#5094F9"/>
<path d="M52.5066 25.7635C66.8756 25.7635 79.5026 33.6745 86.8306 45.6275C79.5026 57.5815 66.8756 65.4935 52.5066 65.4935C38.1346 65.4935 25.5086 57.5815 18.1786 45.6275C25.5086 33.6745 38.1346 25.7635 52.5066 25.7635Z" fill="url(#paint0_linear_43631_30)"/>
<path d="M52.5066 67.7195C67.1556 67.7195 80.6966 59.8965 88.7296 46.7915L89.4426 45.6275L88.7296 44.4635C80.6966 31.3605 67.1556 23.5375 52.5066 23.5375C37.8596 23.5375 24.3166 31.3605 16.2806 44.4635L15.5676 45.6275L16.2806 46.7915C24.3166 59.8965 37.8596 67.7195 52.5066 67.7195ZM84.1936 45.6275C76.9046 56.6975 65.1566 63.2655 52.5056 63.2655C39.8556 63.2655 28.1066 56.7005 20.8166 45.6275C28.1066 34.5565 39.8556 27.9905 52.5056 27.9905C65.1576 27.9905 76.9056 34.5575 84.1936 45.6275Z" fill="#5094F9"/>
<path d="M45.5327 54.6995C46.6777 54.7015 47.9386 54.4695 49.2906 53.9205C50.4306 53.4585 50.9797 52.1605 50.5177 51.0225C50.0557 49.8825 48.7576 49.3345 47.6166 49.7955C45.5586 50.6315 44.0957 50.1755 43.4137 49.4705C43.0777 49.1235 42.9287 48.7135 43.0447 48.4495C43.1737 48.1625 43.8087 47.6785 45.3157 47.5565C45.8817 47.6005 46.4097 47.5805 46.8627 47.5065C47.9917 47.3195 48.7967 46.3075 48.7227 45.1675C48.6487 44.0245 47.7207 43.1225 46.5767 43.0845C46.1637 43.0705 45.7747 43.0725 45.4047 43.0905C44.7167 42.9945 43.7997 42.7195 43.2327 42.2435C42.9077 41.9695 42.9057 41.8005 42.9057 41.7275C43.2707 41.1645 45.7757 40.8055 48.1667 41.1135C49.3857 41.2745 50.5017 40.4135 50.6617 39.1945C50.8217 37.9765 49.9667 36.8615 48.7477 36.6975C47.7397 36.5655 42.5697 36.0125 39.9727 38.3165C38.9607 39.2135 38.4357 40.4115 38.4517 41.7805C38.4667 43.0825 38.9727 44.2675 39.9227 45.2375C39.4267 45.7645 39.1377 46.2805 38.9767 46.6425C38.1187 48.5775 38.6047 50.9035 40.2177 52.5685C41.3507 53.7405 43.1977 54.6995 45.5327 54.6995Z" fill="#5094F9"/>
<path d="M1.01347 61.4635C8.02947 57.9945 13.9795 52.4845 18.1785 45.6255C13.9795 38.7745 8.02947 33.2615 1.01347 29.7935C1.01347 29.7935 8.87647 46.1995 1.01347 61.4635Z" fill="url(#paint1_linear_43631_30)"/>
<path d="M1.01551 63.6895C1.34951 63.6895 1.68751 63.6155 2.00051 63.4605C9.38151 59.8115 15.6315 54.0455 20.0785 46.7905C20.5155 46.0745 20.5155 45.1755 20.0765 44.4625C15.6295 37.2095 9.37951 31.4455 2.00051 27.7985C1.15151 27.3765 0.125509 27.5435 -0.551491 28.2115C-1.22649 28.8785 -1.40549 29.8995 -0.993493 30.7575C-0.921493 30.9085 6.27751 46.3845 -0.965493 60.4445C-1.40649 61.2995 -1.24649 62.3405 -0.573487 63.0255C-0.144487 63.4595 0.43151 63.6895 1.01551 63.6895ZM15.5415 45.6255C12.7985 49.7945 9.37951 53.3695 5.45551 56.1955C7.76651 47.9185 6.56651 40.0145 5.15651 34.8455C9.20351 37.7045 12.7275 41.3535 15.5415 45.6255Z" fill="#5094F9"/>
<path d="M65.0197 65.1865L68.2717 62.1465C59.7527 53.0365 59.7527 38.2175 68.2717 29.1075L65.0197 26.0665C54.9317 36.8515 54.9317 54.4015 65.0197 65.1865Z" fill="#5094F9"/>
<path d="M74.2786 44.0395C74.2786 42.8035 73.2876 41.8115 72.0506 41.8115C70.8236 41.8115 69.8326 42.8035 69.8326 44.0395C69.8326 45.2665 70.8246 46.2585 72.0506 46.2585C73.2876 46.2585 74.2786 45.2665 74.2786 44.0395Z" fill="#5094F9"/>
</g>
<defs>
<linearGradient id="paint0_linear_43631_30" x1="52.5046" y1="25.7635" x2="52.5046" y2="65.4935" gradientUnits="userSpaceOnUse">
<stop stop-color="#74F8FF"/>
<stop offset="1" stop-color="#5051F9"/>
</linearGradient>
<linearGradient id="paint1_linear_43631_30" x1="9.59597" y1="29.7935" x2="9.59597" y2="61.4635" gradientUnits="userSpaceOnUse">
<stop stop-color="#74F8FF"/>
<stop offset="1" stop-color="#5051F9"/>
</linearGradient>
<clipPath id="clip0_43631_30">
<rect width="91" height="91" fill="white" transform="matrix(0 1 -1 0 91 0)"/>
</clipPath>
</defs>
</svg>
