<svg width="80" height="42" viewBox="0 0 80 42" fill="none" xmlns="http://www.w3.org/2000/svg">
<path d="M79.5315 24C79.5885 23.482 79.2775 22.954 78.3445 22.349C77.4955 21.795 76.6155 21.261 75.7615 20.715C73.8915 19.516 71.9245 18.418 70.0495 17.124C64.6025 13.344 58.1295 11.987 51.6665 11.117C49.0165 10.783 46.0545 10.92 43.8275 9.28102C42.0995 8.02002 39.1045 3.65002 35.8215 1.75202C35.2545 1.41302 32.5885 0.0670166 32.5885 0.0670166C32.5885 0.0670166 34.1155 4.20702 34.4655 5.04002C35.2765 6.95802 34.0205 8.61302 33.4945 10.454C33.1555 11.669 35.9875 11.402 36.1355 12.533C36.3475 14.203 31.2935 14.791 28.4485 15.352C24.1845 16.186 19.2165 17.781 14.9565 16.383C9.93649 14.77 6.35849 11.567 2.75149 7.94502C4.42849 15.788 9.09349 20.31 9.30049 21.266C9.51749 22.322 8.76449 22.539 8.08649 23.228C6.58249 24.704 0.0214883 32.244 0.000488281 34.635C1.88249 34.346 4.15349 32.698 5.80849 31.736C7.65149 30.68 14.6785 25.47 16.6465 24.663C17.0965 24.476 22.5415 22.877 22.5875 23.575C22.6685 24.663 22.2285 24.901 22.3725 25.356C22.6365 26.226 24.0535 27.065 24.7315 27.671C26.4915 29.178 28.4755 30.503 29.7155 32.518C31.4555 35.319 31.5325 38.348 32.0275 41.471C33.1875 41.341 34.3705 38.934 35.0125 37.981C35.6105 37.08 37.7955 33.233 38.6245 32.995C39.4085 32.757 41.8375 34.113 42.7095 34.372C46.0445 35.361 49.2915 35.951 52.6925 35.951C56.7835 35.962 67.5335 36.252 75.4975 30.353C76.3785 29.691 78.4795 27.168 78.4795 27.168C78.4795 27.168 78.0405 26.495 77.2575 26.246C78.3045 25.564 79.4335 24.833 79.5315 24ZM72.2925 24.368C71.2935 24.368 70.4905 23.575 70.4905 22.571C70.4905 21.566 71.2935 20.761 72.2925 20.761C73.2975 20.761 74.0995 21.55 74.0995 22.571C74.0995 23.565 73.2915 24.368 72.2925 24.368Z" fill="#74F8FF"/>
</svg>
