<svg width="2386" height="110" viewBox="0 0 2386 110" fill="none" xmlns="http://www.w3.org/2000/svg">
<g clip-path="url(#clip0_43636_14)">
<path d="M0 115.184L185.379 73.6526C210.819 67.953 237.197 67.8795 262.669 73.4372L415.674 106.822C440.925 112.331 467.07 112.307 492.31 106.752L633.643 75.6436C665.287 68.6787 698.228 70.4334 728.953 80.7208L847.843 120.528C885.539 133.149 926.363 132.863 963.878 119.716L1061.07 85.6526C1099.23 72.2794 1140.79 72.2193 1178.99 85.4821L1285.36 122.416C1318.39 133.887 1354.07 135.43 1387.97 126.853L1514.99 94.721C1540.68 88.2234 1567.48 87.5087 1593.48 92.6286L1791.07 131.545C1819.28 137.1 1848.4 135.781 1875.99 127.699L2050.42 76.5962C2076.46 68.9654 2103.91 67.3576 2130.67 71.8944L2386 115.184" stroke="#5094F9" stroke-opacity="0.51" stroke-width="80"/>
</g>
<defs>
<clipPath id="clip0_43636_14">
<rect width="2386" height="110" fill="white"/>
</clipPath>
</defs>
</svg>
