<svg width="2350" height="187" viewBox="0 0 2350 187" fill="none" xmlns="http://www.w3.org/2000/svg">
<g clip-path="url(#clip0_43641_25)">
<path d="M-10 114.529L172.278 70.8606C199.344 64.3763 227.549 64.2928 254.654 70.6168L402.008 104.998C428.877 111.267 456.833 111.24 483.691 104.919L618.765 73.1262C652.392 65.2114 687.591 67.1963 720.115 78.8412L831.977 118.893C871.844 133.167 915.481 132.845 955.134 117.984L1044.66 84.4335C1084.98 69.3198 1129.41 69.2522 1169.78 84.2429L1268.91 121.051C1303.86 134.026 1341.98 135.768 1377.96 126.035L1498.56 93.4113C1525.86 86.0266 1554.52 85.2151 1582.19 91.0435L1773.62 131.36C1803.63 137.681 1834.76 136.185 1864.02 127.017L2032.68 74.1795C2060.31 65.5225 2089.63 63.6986 2118.12 68.8643L2370 114.529" stroke="#5094F9" stroke-width="100"/>
</g>
<defs>
<clipPath id="clip0_43641_25">
<rect width="2350" height="187" fill="white"/>
</clipPath>
</defs>
</svg>
