<svg width="107" height="95" viewBox="0 0 107 95" fill="none" xmlns="http://www.w3.org/2000/svg">
<path d="M106.048 50.555V70.164C103.687 69.154 100.87 67.503 100.166 65.286C99.238 62.495 98.032 56.897 103.106 56.452C103.106 56.452 96.707 48.985 91.321 59.403C87.251 67.341 84.362 70.805 82.487 71.184H79.541C77.672 70.733 74.741 68.641 73.653 65.295C72.726 62.499 71.52 56.907 76.594 56.451C76.594 56.451 70.194 48.989 64.809 59.408C60.723 67.346 57.855 70.815 55.975 71.188H53.029C51.157 70.738 48.226 68.64 47.138 65.294C46.214 62.503 45.01 56.906 50.084 56.461C50.084 56.461 43.674 48.994 38.299 59.412C34.211 67.35 31.342 70.814 29.465 71.192H26.511C24.655 70.742 21.714 68.649 20.626 65.304C19.712 62.508 18.487 56.915 23.572 56.46C23.572 56.46 17.156 48.998 11.787 59.416C8.829 65.131 3.472 68.497 0 70.086V42.248C6.664 19.343 23.796 0 41.241 0C50.176 0 56.648 1.973 58.917 5.901C61.092 9.572 61.174 16.353 55.965 17.679C53.79 18.236 48.465 16.713 47.139 14.73C46.215 13.347 44.377 12.423 47.139 8.84C31.804 4.928 20.451 42.192 55.976 47.14C60.688 29.099 74.576 14.735 88.375 14.735C95.252 14.735 98.415 17.593 100.166 20.623C101.817 23.448 101.206 28.455 97.214 29.462C95.536 29.913 92.145 28.168 91.321 26.524C90.503 24.87 90.679 21.828 94.272 20.624C81.887 17.451 73.354 48.877 106.048 50.555ZM20.627 71.184C20.627 71.184 14.211 63.711 8.839 74.129C6.638 78.397 3.107 81.339 0 83.233V94.75H106.048V85.911C104.174 85.46 98.296 83.368 97.214 80.022C96.292 77.216 95.091 71.634 100.166 71.184C100.166 71.184 93.766 63.711 88.375 74.129C84.3 82.072 81.41 85.537 79.541 85.915H76.595C74.726 85.465 71.789 83.377 70.702 80.027C69.78 77.225 68.579 71.638 73.653 71.188C73.653 71.188 67.243 63.721 61.863 74.139C57.777 82.082 54.908 85.541 53.029 85.919H50.08C48.208 85.469 45.277 83.376 44.19 80.031C43.273 77.224 42.065 71.642 47.139 71.192C47.139 71.192 40.729 63.72 35.357 74.138C31.263 82.071 28.4 85.535 26.512 85.909H23.569C21.71 85.458 18.766 83.366 17.678 80.02C16.767 77.217 15.542 71.635 20.627 71.184Z" fill="#5094F9"/>
</svg>
