<svg width="100" height="100" viewBox="0 0 100 100" fill="none" xmlns="http://www.w3.org/2000/svg">
<rect width="100" height="100" rx="50" fill="#5094F9"/>
<path d="M48.0228 17.3397C49.5333 23.5549 52.604 38.2222 51.2234 49.9385C54.0276 48.0347 58.2819 45.3695 61.4402 43.9971C65.5416 42.2198 69.9547 40.8396 74.5891 39.8847C70.0644 33.6475 64.7109 28.2411 58.6537 23.7898C55.3015 21.3278 51.7341 19.165 48.0228 17.3397ZM49.3401 54.5227C49.0796 54.5273 48.8164 54.4559 48.5852 54.3037C48.089 53.9746 47.8402 53.3513 47.97 52.7509C51.0369 38.334 44.6748 15.4166 44.6106 15.1855C44.4582 14.6478 44.6151 14.0666 45.0109 13.6938C45.4079 13.3153 45.9729 13.2168 46.4645 13.4362C51.3025 15.5711 55.9321 18.2515 60.2293 21.4078C67.1408 26.4859 73.1643 32.7603 78.1391 40.0522C78.4175 40.4596 78.4762 40.9892 78.2945 41.4554C78.1115 41.9174 77.7163 42.248 77.246 42.3308C72.0135 43.2482 67.0486 44.7112 62.4962 46.6864C57.9265 48.6689 51.042 53.4769 50.1793 54.2055C49.9343 54.4111 49.6394 54.5175 49.3401 54.5227Z" fill="white"/>
<path d="M24.7401 47.23C27.6595 48.9411 30.7771 50.2152 34.031 51.0295C37.1895 51.816 40.3827 52.1402 43.674 52.0335C44.4371 46.4429 44.5374 40.7794 43.9706 35.1824C43.6991 32.4963 43.27 29.8101 42.6906 27.166C40.6792 30.2297 38.4905 33.167 36.1584 35.9295C32.6897 40.0376 28.856 43.8312 24.7401 47.23ZM43.0488 54.9605C39.8034 55.0171 36.5653 54.6472 33.3987 53.8567C29.1958 52.807 25.2076 51.0428 21.5459 48.6087C21.1579 48.3537 20.919 47.9145 20.8999 47.4364C20.8809 46.9596 21.0881 46.5014 21.452 46.2164C26.0427 42.6081 30.2945 38.4976 34.0918 33.9953C37.0158 30.5329 39.7103 26.7874 42.0982 22.8586C42.3932 22.3778 42.9284 22.1094 43.4608 22.2085C43.9982 22.2934 44.4397 22.7023 44.587 23.2528C45.6022 27.0532 46.3173 30.963 46.7144 34.8798C47.3473 41.1188 47.1849 47.4364 46.231 53.6608C46.129 54.3269 45.6019 54.8329 44.9612 54.8764C44.3231 54.9214 43.6874 54.9493 43.0488 54.9605Z" fill="white"/>
<path d="M43.2243 15.9331C43.2543 14.6617 43.7016 13.6434 44.0742 13.0148C44.2027 12.7973 44.2113 12.5227 44.0991 12.2966C43.9868 12.0678 43.7664 11.9197 43.5229 11.9056C41.8561 11.8193 40.2665 12.0173 38.8195 12.5056C37.9998 12.7831 37.4249 13.0803 36.8182 13.392C36.258 13.6819 35.6805 13.9818 34.8254 14.3064C33.6836 14.7401 32.4888 15.0509 31.281 15.2253C31.001 15.264 30.7762 15.4776 30.7064 15.7631C30.6379 16.0514 30.7381 16.3537 30.9643 16.5284C32.2434 17.525 33.5951 18.1685 34.9844 18.4398C36.123 18.6634 36.8898 18.5614 37.5699 18.4763C38.2646 18.3826 38.8714 18.3114 39.8402 18.6069C39.8644 18.615 40.4441 18.8258 43.3014 20.3466C43.4025 20.3983 43.5125 20.4231 43.6234 20.4212C43.8078 20.4179 43.9855 20.3402 44.1153 20.193C44.325 19.9557 44.3616 19.6005 44.203 19.3246C44.192 19.3051 43.185 17.51 43.2243 15.9331Z" fill="white"/>
<path d="M14.058 60.8848C13.3997 59.6184 13.1628 58.6768 13.3355 58.2375C13.6096 57.5516 17.7097 58.1499 20.6991 58.5917C27.3693 59.5702 37.4524 61.052 51.0023 59.3223C61.9453 57.928 70.5291 54.4513 76.7998 51.9127C80.8927 50.2566 85.1408 48.5387 85.8064 49.5333C85.8846 49.6487 86.2153 50.2988 85.5485 52.2948C83.8804 52.4379 81.6922 53.3388 78.5404 54.6182C72.6891 56.9876 63.8492 60.5716 51.2953 62.1727C38.1027 63.854 28.2366 62.3993 21.7099 61.4465C18.1832 60.9268 15.7567 60.5765 14.058 60.8848ZM20.2565 72.2803C21.1564 71.7692 21.9963 71.1916 22.7269 70.6285C19.6726 68.1543 17.401 65.7297 15.8548 63.671C17.2403 63.72 19.1966 64.0081 21.3338 64.3226C26.1093 65.026 32.6281 65.9818 40.9146 65.8371C44.208 65.7796 47.7804 65.547 51.6317 65.0575C64.5229 63.4125 73.5593 59.7519 79.5366 57.3283C81.2459 56.6356 82.8201 56.0099 84.0628 55.6153C83.0576 57.5187 81.5528 59.9769 79.2699 63.1833C78.0711 64.8691 76.7477 66.46 75.3303 67.9512C75.648 68.2383 76.4501 68.9379 77.5503 69.7209C78.958 68.2101 80.284 66.6093 81.4932 64.9079C87.8319 56.0055 89.9144 50.5846 88.0476 47.8419C86.1191 45.0145 82.2334 46.5952 75.8035 49.1984C69.6696 51.6853 61.2663 55.0872 50.6647 56.439C37.4668 58.1259 27.5993 56.6685 21.0726 55.7128C15.1487 54.8451 11.878 54.366 10.7886 57.1153C9.35491 60.7347 14.2715 67.2184 20.2565 72.2803Z" fill="white"/>
<path d="M84.9117 74.0818C81.8387 74.1354 78.64 72.2716 76.5541 70.76C75.4035 69.9258 74.5902 69.1997 74.3335 68.9636C74.2792 68.9138 74.2439 68.8807 74.2411 68.8779L73.2012 67.8758L72.1969 68.915C72.1445 68.9708 66.8477 74.3971 61.7358 74.4863C56.6266 74.5755 51.1464 69.3373 51.092 69.2834L50.0494 68.2799L49.0451 69.3191C48.9913 69.3749 43.6972 74.8012 38.588 74.8904C33.4855 74.9795 28.0106 69.7412 27.9562 69.6872L26.9122 68.6781L25.9066 69.723C25.8804 69.7516 24.5387 71.1359 22.562 72.5173C22.2082 72.7641 21.8289 73.0086 21.4375 73.249C19.6681 74.3326 17.5672 75.2573 15.4829 75.2937C11.778 75.3584 7.9053 72.6324 6.02221 71.1031L6.08603 74.7597C8.50874 76.4231 11.9716 78.2612 15.5337 78.199C20.3863 78.1143 25.0048 74.4857 26.9851 72.7018C29.0318 74.4154 33.782 77.8805 38.6387 77.7957C43.5021 77.7108 48.1338 74.0792 50.1195 72.298C52.1688 74.0088 56.9232 77.4765 61.7865 77.3916C66.6526 77.3067 71.2897 73.675 73.274 71.891C75.3247 73.6046 80.091 77.0721 84.9624 76.9871C88.6247 76.9232 92.1224 74.8623 94.4943 73.0814L94.4303 69.4107C92.6706 70.9712 88.753 74.0148 84.9117 74.0818Z" fill="white"/>
</svg>
