<svg width="61" height="90" viewBox="0 0 61 90" fill="none" xmlns="http://www.w3.org/2000/svg">
<path d="M12.5876 25.8325C12.5876 25.8325 3.15063 33.4345 3.15063 48.7795C3.15063 54.2165 13.6916 52.2215 13.6916 52.2215" fill="#E4E4E6"/>
<path d="M14.1056 54.4094L13.2776 50.0334C10.9816 50.4634 6.97758 50.5994 5.68758 49.5274C5.49158 49.3644 5.37658 49.1894 5.37658 48.7794C5.37658 34.6635 13.8976 27.6364 13.9836 27.5664L11.1896 24.0984C10.7716 24.4364 0.923584 32.5554 0.923584 48.7794C0.923584 50.4704 1.58858 51.9154 2.84758 52.9584C6.19758 55.7344 12.8136 54.6554 14.1056 54.4094Z" fill="#5094F9"/>
<path d="M48.4685 25.8325C48.4685 25.8325 57.9035 33.4345 57.9035 48.7795C57.9035 54.2165 47.3635 52.2215 47.3635 52.2215" fill="#E4E4E6"/>
<path d="M60.1305 48.7794C60.1305 32.5565 50.2845 24.4364 49.8645 24.0984L47.0655 27.5614C47.4155 27.8494 55.6755 34.7705 55.6755 48.7794C55.6755 49.1894 55.5635 49.3644 55.3645 49.5274C54.0745 50.5994 50.0705 50.4634 47.7715 50.0334L46.9465 54.4094C48.2395 54.6554 54.8535 55.7344 58.2045 52.9584C59.4655 51.9154 60.1305 50.4704 60.1305 48.7794Z" fill="#5094F9"/>
<path d="M10.7637 37.4934C10.7637 23.1244 18.6747 10.4974 30.6277 3.16943C42.5817 10.4974 50.4937 23.1244 50.4937 37.4934C50.4937 51.8654 42.5817 64.4914 30.6277 71.8214C18.6747 64.4914 10.7637 51.8654 10.7637 37.4934Z" fill="url(#paint0_linear_43628_64)"/>
<path d="M52.7196 37.4934C52.7196 22.8444 44.8966 9.30343 31.7916 1.27043L30.6276 0.557434L29.4636 1.27043C16.3606 9.30343 8.5376 22.8444 8.5376 37.4934C8.5376 52.1404 16.3606 65.6834 29.4636 73.7194L30.6276 74.4324L31.7916 73.7194C44.8966 65.6834 52.7196 52.1404 52.7196 37.4934ZM30.6276 5.80643C41.6976 13.0954 48.2656 24.8434 48.2656 37.4944C48.2656 50.1444 41.7006 61.8934 30.6276 69.1834C19.5566 61.8934 12.9906 50.1444 12.9906 37.4944C12.9906 24.8424 19.5576 13.0944 30.6276 5.80643Z" fill="#5094F9"/>
<path d="M39.6996 44.4674C39.7016 43.3224 39.4696 42.0614 38.9206 40.7094C38.4586 39.5694 37.1606 39.0204 36.0226 39.4824C34.8826 39.9444 34.3346 41.2424 34.7956 42.3834C35.6316 44.4414 35.1756 45.9044 34.4706 46.5864C34.1236 46.9224 33.7136 47.0714 33.4496 46.9554C33.1626 46.8264 32.6786 46.1914 32.5566 44.6844C32.6006 44.1184 32.5806 43.5904 32.5066 43.1374C32.3196 42.0084 31.3076 41.2034 30.1676 41.2774C29.0246 41.3514 28.1226 42.2794 28.0846 43.4234C28.0706 43.8364 28.0726 44.2254 28.0906 44.5954C27.9946 45.2834 27.7196 46.2004 27.2436 46.7674C26.9696 47.0924 26.8006 47.0944 26.7276 47.0944C26.1646 46.7294 25.8056 44.2244 26.1136 41.8334C26.2746 40.6144 25.4136 39.4984 24.1946 39.3384C22.9766 39.1784 21.8616 40.0334 21.6976 41.2524C21.5656 42.2604 21.0126 47.4304 23.3166 50.0274C24.2136 51.0394 25.4116 51.5644 26.7806 51.5484C28.0826 51.5334 29.2676 51.0274 30.2376 50.0774C30.7646 50.5734 31.2806 50.8624 31.6426 51.0234C33.5776 51.8814 35.9036 51.3954 37.5686 49.7824C38.7406 48.6494 39.6996 46.8024 39.6996 44.4674Z" fill="#5094F9"/>
<path d="M46.4637 88.9864C42.9947 81.9704 37.4847 76.0204 30.6257 71.8214C23.7747 76.0204 18.2617 81.9704 14.7937 88.9864C14.7937 88.9864 31.1997 81.1234 46.4637 88.9864Z" fill="url(#paint1_linear_43628_64)"/>
<path d="M48.6896 88.9844C48.6896 88.6504 48.6156 88.3124 48.4606 87.9994C44.8116 80.6184 39.0456 74.3684 31.7906 69.9214C31.0746 69.4844 30.1756 69.4844 29.4626 69.9234C22.2096 74.3704 16.4456 80.6204 12.7986 87.9994C12.3766 88.8484 12.5436 89.8744 13.2116 90.5514C13.8786 91.2264 14.8996 91.4054 15.7576 90.9934C15.9086 90.9214 31.3846 83.7224 45.4446 90.9654C46.2996 91.4064 47.3406 91.2464 48.0256 90.5734C48.4596 90.1444 48.6896 89.5684 48.6896 88.9844ZM30.6256 74.4584C34.7946 77.2014 38.3696 80.6204 41.1956 84.5444C32.9186 82.2334 25.0146 83.4334 19.8456 84.8434C22.7046 80.7964 26.3536 77.2724 30.6256 74.4584Z" fill="#5094F9"/>
<path d="M50.1866 24.9805L47.1467 21.7285C38.0367 30.2475 23.2176 30.2475 14.1077 21.7285L11.0667 24.9805C21.8516 35.0685 39.4016 35.0685 50.1866 24.9805Z" fill="#5094F9"/>
<path d="M29.0395 15.7214C27.8035 15.7214 26.8115 16.7124 26.8115 17.9494C26.8115 19.1764 27.8035 20.1674 29.0395 20.1674C30.2665 20.1674 31.2585 19.1754 31.2585 17.9494C31.2585 16.7124 30.2665 15.7214 29.0395 15.7214Z" fill="#5094F9"/>
<defs>
<linearGradient id="paint0_linear_43628_64" x1="10.7637" y1="37.4954" x2="50.4937" y2="37.4954" gradientUnits="userSpaceOnUse">
<stop stop-color="#74F8FF"/>
<stop offset="1" stop-color="#5051F9"/>
</linearGradient>
<linearGradient id="paint1_linear_43628_64" x1="14.7937" y1="80.4039" x2="46.4637" y2="80.4039" gradientUnits="userSpaceOnUse">
<stop stop-color="#74F8FF"/>
<stop offset="1" stop-color="#5051F9"/>
</linearGradient>
</defs>
</svg>
