<svg width="89" height="64" viewBox="0 0 89 64" fill="none" xmlns="http://www.w3.org/2000/svg">
<path d="M43.6169 6.0353C45.0156 11.9486 47.8236 25.8953 46.2422 36.9726C49.0729 35.2153 53.3636 32.7606 56.5382 31.5126C60.6609 29.8966 65.0876 28.662 69.7276 27.834C65.3222 21.85 60.0756 16.6393 54.1102 12.322C50.8089 9.93397 47.2876 7.82597 43.6169 6.0353ZM44.2836 41.2846C44.0236 41.2846 43.7623 41.2126 43.5343 41.0646C43.0449 40.7446 42.8076 40.1499 42.9476 39.5833C46.2582 25.9753 40.3103 4.15797 40.2503 3.93797C40.1076 3.42597 40.2743 2.87798 40.6756 2.53132C41.0783 2.17932 41.6436 2.09531 42.1302 2.31131C46.9196 4.41397 51.4916 7.02996 55.7236 10.0913C62.5302 15.0166 68.4302 21.0606 73.2662 28.0513C73.5369 28.442 73.5862 28.9446 73.3969 29.3833C73.2062 29.8179 72.8062 30.1246 72.3356 30.1953C67.0996 30.978 62.1209 32.2819 57.5449 34.0779C52.9516 35.8806 45.9996 40.3219 45.1263 40.9979C44.8783 41.1886 44.5822 41.2846 44.2836 41.2846Z" fill="white"/>
<path d="M19.8687 33.9686C22.7514 35.6379 25.8394 36.8966 29.0714 37.7219C32.2087 38.5193 35.3887 38.8793 38.6741 38.8326C39.5327 33.5486 39.7314 28.1846 39.2634 22.8726C39.0394 20.3233 38.6581 17.7713 38.1261 15.2566C36.0661 18.1259 33.8314 20.8726 31.4567 23.4513C27.9247 27.2859 24.0341 30.8166 19.8687 33.9686ZM37.9994 41.5953C34.7607 41.5953 31.5367 41.1913 28.3914 40.39C24.2167 39.326 20.2687 37.5886 16.6581 35.2219C16.2754 34.9739 16.0447 34.5539 16.0341 34.1006C16.0234 33.6486 16.2381 33.218 16.6061 32.954C21.2487 29.6113 25.5621 25.7873 29.4287 21.5846C32.4061 18.3526 35.1594 14.8486 37.6101 11.166C37.9127 10.7153 38.4514 10.4699 38.9807 10.5726C39.5154 10.6619 39.9487 11.0566 40.0861 11.5806C41.0327 15.198 41.678 18.914 42.006 22.6313C42.5287 28.5526 42.2567 34.5353 41.1967 40.4166C41.0834 41.0459 40.5487 41.5166 39.9087 41.5473C39.2714 41.5793 38.6367 41.5953 37.9994 41.5953Z" fill="white"/>
<path d="M38.8543 4.62329C38.9063 3.41929 39.3703 2.46193 39.7529 1.8726C39.8849 1.6686 39.8983 1.40859 39.7903 1.19259C39.6823 0.973921 39.4649 0.829957 39.2223 0.812623C37.5609 0.70329 35.9716 0.864598 34.5196 1.30326C33.6969 1.5526 33.1183 1.82461 32.5076 2.10995C31.9436 2.37528 31.3623 2.64995 30.5036 2.94328C29.3569 3.33528 28.1596 3.60996 26.9516 3.75529C26.6716 3.78729 26.4436 3.98596 26.3689 4.25529C26.2956 4.52729 26.3903 4.81529 26.6129 4.98462C27.8716 5.94995 29.2089 6.58194 30.5903 6.86194C31.7223 7.09261 32.4889 7.00862 33.1689 6.93929C33.8636 6.86196 34.4703 6.80459 35.4316 7.10059C35.4556 7.10859 36.0303 7.31795 38.8543 8.80595C38.9543 8.85662 39.0636 8.88196 39.1743 8.88196C39.3583 8.88196 39.5369 8.81128 39.6689 8.67395C39.8823 8.45262 39.9249 8.11662 39.7716 7.85262C39.7609 7.83395 38.7876 6.11662 38.8543 4.62329Z" fill="white"/>
<path d="M8.97421 46.7286C8.33954 45.5179 8.11953 44.6219 8.29953 44.2086C8.58486 43.5633 12.6649 44.1979 15.6395 44.6659C22.2769 45.7032 32.3102 47.2739 45.8582 45.8592C56.7995 44.7192 65.4235 41.5673 71.7235 39.2659C75.8355 37.7646 80.1035 36.2073 80.7502 37.1606C80.8262 37.2713 81.1448 37.8926 80.4448 39.7726C78.7782 39.8806 76.5795 40.6979 73.4129 41.8579C67.5342 44.0059 58.6528 47.2553 46.1009 48.5646C32.9102 49.9393 23.0929 48.3979 16.5982 47.3873C13.0889 46.8366 10.6742 46.4646 8.97421 46.7286ZM14.9595 57.6273C15.8662 57.1579 16.7142 56.6246 17.4529 56.1033C14.4489 53.7086 12.2249 51.3739 10.7182 49.3979C12.0995 49.4673 14.0462 49.7726 16.1729 50.1059C20.9249 50.8513 27.4115 51.8646 35.6809 51.8646C38.9675 51.8646 42.5355 51.7032 46.3862 51.3032C59.2755 49.9579 68.3542 46.6392 74.3595 44.4419C76.0768 43.8139 77.6582 43.2472 78.9048 42.8939C77.8688 44.6806 76.3249 46.9846 73.9915 49.9846C72.7662 51.5619 71.4182 53.0473 69.9782 54.4366C70.2902 54.7139 71.0782 55.3899 72.1622 56.1499C73.5929 54.7419 74.9435 53.2473 76.1795 51.6553C82.6582 43.3259 84.8302 38.2246 83.0155 35.5952C81.1408 32.8846 77.2368 34.3179 70.7769 36.6779C64.6142 38.9326 56.1715 42.0166 45.5715 43.1219C32.3755 44.5019 22.5569 42.9579 16.0622 41.9446C10.1675 41.0246 6.91287 40.5166 5.77821 43.1033C4.28487 46.5086 9.07688 52.7326 14.9595 57.6273Z" fill="white"/>
<path d="M79.4302 60.4033C76.3635 60.4033 73.2049 58.5846 71.1502 57.1179C70.0169 56.3086 69.2182 55.6073 68.9662 55.3793C68.9129 55.3313 68.8782 55.2993 68.8755 55.2966L67.8555 54.33L66.8355 55.2979C66.7822 55.3499 61.4035 60.4033 56.3022 60.4033C51.2035 60.4033 45.8275 55.3499 45.7742 55.2979L44.7515 54.33L43.7315 55.2979C43.6769 55.3499 38.3009 60.4033 33.2022 60.4033C28.1102 60.4033 22.7395 55.3499 22.6862 55.2979L21.6622 54.3246L20.6409 55.2979C20.6142 55.3246 19.2516 56.6139 17.2556 57.8899C16.8982 58.1179 16.5156 58.3433 16.1209 58.5646C14.3369 59.562 12.2249 60.4033 10.1449 60.4033C6.44754 60.4033 2.63154 57.7566 0.779541 56.2766V59.7419C3.16754 61.3579 6.59021 63.1566 10.1449 63.1566C14.9875 63.1566 19.6582 59.7953 21.6649 58.1379C23.6769 59.7953 28.3555 63.1566 33.2022 63.1566C38.0555 63.1566 42.7395 59.7926 44.7515 58.1379C46.7662 59.7926 51.4489 63.1566 56.3022 63.1566C61.1582 63.1566 65.8475 59.7926 67.8582 58.1353C69.8742 59.7926 74.5689 63.1566 79.4302 63.1566C83.0849 63.1566 86.6102 61.2619 89.0075 59.6139V56.1353C87.2248 57.5846 83.2635 60.4033 79.4302 60.4033Z" fill="white"/>
</svg>
