<svg width="107" height="96" viewBox="0 0 107 96" fill="none" xmlns="http://www.w3.org/2000/svg">
<path d="M106.048 51.204V70.813C103.687 69.803 100.87 68.152 100.166 65.935C99.238 63.144 98.032 57.5461 103.106 57.1011C103.106 57.1011 96.707 49.634 91.321 60.052C87.251 67.99 84.362 71.454 82.487 71.833H79.541C77.672 71.382 74.741 69.29 73.653 65.944C72.726 63.148 71.52 57.556 76.594 57.1C76.594 57.1 70.194 49.638 64.809 60.057C60.723 67.995 57.855 71.464 55.975 71.837H53.029C51.157 71.387 48.226 69.289 47.138 65.943C46.214 63.152 45.01 57.555 50.084 57.11C50.084 57.11 43.674 49.643 38.299 60.061C34.211 67.999 31.342 71.463 29.465 71.841H26.511C24.655 71.391 21.714 69.298 20.626 65.953C19.712 63.157 18.487 57.564 23.572 57.109C23.572 57.109 17.156 49.647 11.787 60.065C8.829 65.78 3.472 69.146 0 70.735V42.897C6.664 19.992 23.796 0.649048 41.241 0.649048C50.176 0.649048 56.648 2.62205 58.917 6.55005C61.092 10.221 61.174 17.002 55.965 18.328C53.79 18.885 48.465 17.362 47.139 15.379C46.215 13.996 44.377 13.072 47.139 9.48905C31.804 5.57705 20.451 42.841 55.976 47.789C60.688 29.748 74.576 15.384 88.375 15.384C95.252 15.384 98.415 18.242 100.166 21.272C101.817 24.097 101.206 29.104 97.214 30.111C95.536 30.562 92.145 28.817 91.321 27.173C90.503 25.519 90.679 22.477 94.272 21.273C81.887 18.1 73.354 49.526 106.048 51.204ZM20.627 71.833C20.627 71.833 14.211 64.36 8.839 74.778C6.638 79.046 3.107 81.988 0 83.882V95.399H106.048V86.56C104.174 86.109 98.296 84.017 97.214 80.671C96.292 77.865 95.091 72.283 100.166 71.833C100.166 71.833 93.766 64.36 88.375 74.778C84.3 82.721 81.41 86.186 79.541 86.564H76.595C74.726 86.114 71.789 84.026 70.702 80.676C69.78 77.874 68.579 72.287 73.653 71.837C73.653 71.837 67.243 64.37 61.863 74.788C57.777 82.731 54.908 86.19 53.029 86.568H50.08C48.208 86.118 45.277 84.025 44.19 80.68C43.273 77.873 42.065 72.291 47.139 71.841C47.139 71.841 40.729 64.369 35.357 74.787C31.263 82.72 28.4 86.184 26.512 86.558H23.569C21.71 86.107 18.766 84.015 17.678 80.669C16.767 77.866 15.542 72.284 20.627 71.833Z" fill="white"/>
</svg>
