<svg width="20" height="18" viewBox="0 0 20 18" fill="none" xmlns="http://www.w3.org/2000/svg">
<path fill-rule="evenodd" clip-rule="evenodd" d="M16.5 13.5857C15.015 13.5857 14.08 14.0138 13.255 14.4011C12.54 14.7374 11.957 15.0126 11 15.0126C10.01 15.0126 9.46 14.7578 8.745 14.4011C7.92 14.0138 7.018 13.5857 5.5 13.5857C3.982 13.5857 3.08 14.0138 2.255 14.4011C1.54 14.7374 0.968 15.0126 0 15.0126V17C1.485 17 2.42 16.5719 3.245 16.1847C3.96 15.8483 4.532 15.5731 5.5 15.5731C6.468 15.5731 7.04 15.8279 7.755 16.1847C8.58 16.5719 9.482 17 11 17C12.518 17 13.42 16.5719 14.245 16.1847C14.96 15.8483 15.543 15.5731 16.5 15.5731C17.49 15.5731 18.04 15.8279 18.755 16.1847C19.58 16.5719 20.493 17 22 17V15.0126C21.01 15.0126 20.46 14.7578 19.745 14.4011C18.92 14.0138 17.985 13.5857 16.5 13.5857ZM16.5 9.05036C15.015 9.05036 14.08 9.48861 13.255 9.86571C12.54 10.1918 11.957 10.4772 11 10.4772C10.01 10.4772 9.46 10.2224 8.745 9.86571C7.92 9.47842 7.018 9.05036 5.5 9.05036C3.982 9.05036 3.08 9.48861 2.255 9.86571C1.54 10.1918 0.968 10.4772 0 10.4772V12.4646C1.485 12.4646 2.42 12.0264 3.245 11.6493C3.96 11.2926 4.51 11.0378 5.5 11.0378C6.49 11.0378 7.04 11.2926 7.755 11.6493C8.58 12.0366 9.482 12.4646 11 12.4646C12.518 12.4646 13.42 12.0264 14.245 11.6493C14.96 11.2926 15.51 11.0378 16.5 11.0378C17.49 11.0378 18.04 11.2926 18.755 11.6493C19.58 12.0366 20.493 12.4646 22 12.4646V10.4772C21.01 10.4772 20.46 10.2224 19.745 9.86571C18.92 9.47842 17.985 9.05036 16.5 9.05036ZM19.745 0.815348C18.92 0.428057 18.007 0 16.5 0C14.993 0 14.08 0.428057 13.255 0.815348C12.54 1.14149 11.957 1.42686 11 1.42686C10.01 1.42686 9.46 1.17206 8.745 0.815348C7.92 0.438249 7.018 0 5.5 0C3.982 0 3.08 0.428057 2.255 0.815348C1.54 1.15168 0.968 1.42686 0 1.42686V3.39388C1.485 3.39388 2.42 2.95564 3.245 2.57854C3.96 2.24221 4.532 1.96703 5.5 1.96703C6.468 1.96703 7.04 2.22182 7.755 2.57854C8.58 2.96583 9.482 3.39388 11 3.39388C12.518 3.39388 13.42 2.95564 14.245 2.57854C14.96 2.2524 15.543 1.96703 16.5 1.96703C17.49 1.96703 18.04 2.22182 18.755 2.57854C19.58 2.96583 20.493 3.39388 22 3.39388V1.40647C21.01 1.40647 20.46 1.15168 19.745 0.815348ZM16.5 4.51499C15.015 4.51499 14.08 4.95324 13.255 5.33034C12.54 5.68705 11.99 5.94185 11 5.94185C10.01 5.94185 9.46 5.68705 8.745 5.33034C7.92 4.94305 7.018 4.51499 5.5 4.51499C3.982 4.51499 3.08 4.95324 2.255 5.33034C1.54 5.68705 0.99 5.94185 0 5.94185V7.92926C1.485 7.92926 2.42 7.49101 3.245 7.11391C3.96 6.78777 4.543 6.5024 5.5 6.5024C6.457 6.5024 7.04 6.75719 7.755 7.11391C8.58 7.5012 9.482 7.92926 11 7.92926C12.518 7.92926 13.42 7.49101 14.245 7.11391C14.96 6.78777 15.543 6.5024 16.5 6.5024C17.49 6.5024 18.04 6.75719 18.755 7.11391C19.58 7.5012 20.493 7.92926 22 7.92926V5.94185C21.01 5.94185 20.46 5.68705 19.745 5.33034C18.92 4.94305 17.985 4.51499 16.5 4.51499Z" fill="#014E7A"/>
</svg>
