<svg width="96" height="96" viewBox="0 0 96 96" fill="none" xmlns="http://www.w3.org/2000/svg">
<path d="M58.69 75.27C58.521 75.2714 58.3544 75.23 58.2057 75.1495C58.0571 75.0691 57.9313 74.9523 57.84 74.81C57.66 74.52 57.39 74.15 57.07 73.71C55.1818 71.2649 53.6964 68.5338 52.67 65.62C51.696 62.5067 51.2069 59.2621 51.22 56C51.3394 53.0515 52.0968 50.1639 53.4399 47.5363C54.7831 44.9088 56.68 42.6037 59 40.78C61.1892 39.1612 63.6932 38.0187 66.3508 37.4262C69.0083 36.8338 71.7604 36.8044 74.43 37.34C75.9072 37.5928 77.3167 38.1467 78.5708 38.9673C79.8249 39.7879 80.8968 40.8576 81.72 42.11C82.3023 42.9617 82.7023 43.9245 82.8951 44.9381C83.0878 45.9516 83.069 46.9941 82.84 48C82.474 49.1259 81.8559 50.1534 81.0328 51.0043C80.2096 51.8551 79.2031 52.5069 78.09 52.91C79.4732 53.8266 81.0904 54.327 82.7495 54.3518C84.4086 54.3766 86.04 53.9248 87.45 53.05C92.45 49.37 93.45 42.26 89.85 34.93C89.64 34.49 84.85 24.47 73.85 22.98C66.71 21.98 56.85 24.33 52.01 31.72C49.5043 35.4499 47.3358 39.3955 45.53 43.51C44.93 44.81 44.36 46.03 43.81 47.09C42.89 48.85 42.11 50.47 41.41 51.91C40.0204 55.1104 38.251 58.1321 36.14 60.91C34.3135 62.9525 32.2792 64.7991 30.07 66.42C27.58 68.11 24.07 69.25 21.67 67.42C21.1302 67.0253 20.6751 66.5264 20.3316 65.9527C19.9881 65.379 19.7631 64.7422 19.67 64.08C19.6886 63.198 19.8821 62.3284 20.2391 61.5216C20.5962 60.7149 21.1097 59.9869 21.75 59.38C22.8695 58.1448 24.3619 57.3091 26 57C25.688 56.0897 25.1861 55.256 24.5276 54.5543C23.869 53.8527 23.0688 53.299 22.18 52.93C19.08 51.84 15.34 53.6 13.65 56.93C13.6237 56.9822 13.5936 57.0323 13.56 57.08C12.5611 58.5512 11.7545 60.1441 11.16 61.82C9.71 65.34 8.07 69.33 3.23 70.42C3.09868 70.4489 2.96295 70.4517 2.83057 70.4281C2.69819 70.4045 2.57175 70.3551 2.45846 70.2827C2.22966 70.1364 2.06835 69.9052 2.01 69.64C1.95165 69.3748 2.00105 69.0973 2.14733 68.8685C2.29361 68.6397 2.52479 68.4784 2.79 68.42C6.62 67.56 7.92 64.42 9.31 61C9.96412 59.1998 10.8374 57.4869 11.91 55.9C14.09 51.67 18.78 49.55 22.84 50.98C27.21 52.52 28.28 57.44 28.32 57.65C28.3504 57.7991 28.3464 57.9532 28.3083 58.1005C28.2702 58.2478 28.1989 58.3844 28.1 58.5C28.0049 58.6187 27.8824 58.7126 27.7431 58.7736C27.6038 58.8345 27.4517 58.8608 27.3 58.85C26.522 58.8467 25.7522 59.009 25.0418 59.3263C24.3315 59.6436 23.6968 60.1084 23.18 60.69C22.2984 61.5138 21.7563 62.6373 21.66 63.84C21.7324 64.2289 21.881 64.5996 22.0973 64.9309C22.3135 65.2621 22.5931 65.5473 22.92 65.77C24.37 66.9 27 66.06 28.97 64.72C31.0194 63.2135 32.9092 61.5012 34.61 59.61C36.6142 56.939 38.2927 54.0385 39.61 50.97C40.31 49.53 41.11 47.89 42.04 46.1C42.57 45.1 43.13 43.88 43.72 42.61C45.5644 38.3945 47.7868 34.3546 50.36 30.54C55.63 22.45 66.36 19.88 74.12 20.94C86.12 22.58 91.42 33.54 91.64 34C95.64 42.23 94.48 50.32 88.64 54.6C85.4 57 79.39 57.11 75.31 53.21C75.1762 53.0849 75.0794 52.9256 75.03 52.7492C74.9806 52.5729 74.9806 52.3864 75.03 52.21C75.0801 52.0365 75.1763 51.8798 75.3084 51.7565C75.4404 51.6333 75.6034 51.5481 75.78 51.51C78.38 50.92 80.4 49.32 80.9 47.43C81.0562 46.6995 81.0613 45.9448 80.9151 45.2122C80.769 44.4796 80.4746 43.7847 80.05 43.17C79.3694 42.1473 78.4854 41.2759 77.4531 40.61C76.4208 39.9442 75.2623 39.4982 74.05 39.3C71.6583 38.831 69.1955 38.8606 66.8158 39.3872C64.436 39.9137 62.1906 40.9258 60.22 42.36C53.32 47.59 53.22 55.89 53.22 55.97C53.2109 59.0219 53.6696 62.0571 54.58 64.97C55.544 67.6801 56.9349 70.2188 58.7 72.49C59.04 72.97 59.33 73.37 59.53 73.69C59.6003 73.801 59.648 73.9247 59.6705 74.0541C59.6929 74.1835 59.6896 74.3161 59.6609 74.4442C59.6321 74.5724 59.5783 74.6936 59.5027 74.801C59.427 74.9083 59.331 74.9998 59.22 75.07C59.0663 75.1864 58.8822 75.2558 58.69 75.27Z" fill="#74F8FF"/>
<path d="M75.4501 73C68.7301 73 61.8701 71.22 58.3801 65C57.2378 63.1414 56.5059 61.0602 56.2334 58.8958C55.9609 56.7314 56.1541 54.5337 56.8001 52.45C59.8001 42.97 71.5101 37.39 72.0001 37.15C72.2454 37.036 72.526 37.024 72.7801 37.1169C73.0342 37.2097 73.2411 37.3997 73.3551 37.645C73.4692 37.8903 73.4811 38.1709 73.3882 38.425C73.2954 38.6791 73.1054 38.8859 72.8601 39C72.7401 39.06 61.4701 44.46 58.7101 53.11C58.1602 54.9215 58.0015 56.8291 58.2446 58.7066C58.4876 60.584 59.127 62.3883 60.1201 64C67.3301 76.83 92.4101 68 92.6601 67.86C92.9073 67.7784 93.1766 67.7964 93.4107 67.9102C93.6448 68.0241 93.8254 68.2247 93.9139 68.4695C94.0024 68.7143 93.992 68.984 93.8849 69.2212C93.7777 69.4584 93.5823 69.6446 93.3401 69.74C87.5808 71.7435 81.546 72.8432 75.4501 73Z" fill="#5094F9"/>
<path d="M64.87 59.51C64.6197 59.511 64.3781 59.4181 64.1929 59.2496C64.0078 59.0811 63.8925 58.8493 63.87 58.6C62.5 43.49 78.22 39.29 78.38 39.25C78.5094 39.2174 78.6441 39.211 78.776 39.2312C78.9079 39.2514 79.0344 39.2979 79.1481 39.3678C79.2618 39.4377 79.3604 39.5296 79.438 39.6382C79.5156 39.7468 79.5707 39.8698 79.6 40C79.6331 40.1274 79.6407 40.26 79.6223 40.3904C79.604 40.5207 79.5602 40.6461 79.4933 40.7595C79.4264 40.8728 79.3378 40.9718 79.2325 41.0509C79.1273 41.1299 79.0075 41.1874 78.88 41.22C78.3 41.37 64.65 45.05 65.88 58.45C65.8972 58.7058 65.8154 58.9584 65.6517 59.1557C65.4879 59.353 65.2546 59.4798 65 59.51H64.87Z" fill="#5094F9"/>
<path d="M80.09 66.27C77.5588 66.359 75.0456 65.8124 72.78 64.68C71.6626 64.0672 70.692 63.2184 69.9356 62.1926C69.1792 61.1668 68.6553 59.9887 68.4 58.74C68.0178 57.3779 67.9388 55.9485 68.1686 54.5525C68.3984 53.1565 68.9314 51.8278 69.73 50.66C73.33 45.51 81.49 44.46 81.84 44.42C82.1025 44.389 82.3665 44.463 82.5745 44.626C82.7825 44.7891 82.9175 45.0278 82.95 45.29C82.9668 45.4208 82.9576 45.5535 82.9229 45.6807C82.8883 45.8078 82.8288 45.9268 82.7479 46.0309C82.6671 46.135 82.5665 46.2221 82.4518 46.2872C82.3372 46.3522 82.2109 46.394 82.08 46.41C82 46.41 74.45 47.41 71.36 51.81C70.7326 52.7508 70.3181 53.8171 70.1454 54.9346C69.9726 56.0521 70.0459 57.1938 70.36 58.28C70.548 59.2582 70.9504 60.1825 71.5383 60.9866C72.1261 61.7906 72.8849 62.4543 73.76 62.93C79.47 66.1 89.76 62.66 89.87 62.63C89.9966 62.5774 90.1325 62.5513 90.2695 62.5535C90.4065 62.5556 90.5416 62.5858 90.6665 62.6423C90.7913 62.6988 90.9032 62.7804 90.9952 62.8819C91.0872 62.9835 91.1573 63.1028 91.2013 63.2326C91.2452 63.3624 91.262 63.4998 91.2507 63.6364C91.2393 63.7729 91.2 63.9057 91.1352 64.0264C91.0703 64.1471 90.9814 64.2532 90.8739 64.3381C90.7663 64.423 90.6425 64.485 90.51 64.52C87.1401 65.6061 83.6299 66.1956 80.09 66.27Z" fill="#5094F9"/>
<path d="M15.1801 75.26C11.4062 75.2256 7.641 74.8912 3.92011 74.26C3.65489 74.2176 3.41739 74.0715 3.25986 73.854C3.10233 73.6364 3.03767 73.3652 3.08011 73.1C3.12254 72.8348 3.26859 72.5973 3.48614 72.4397C3.70368 72.2822 3.97489 72.2176 4.24011 72.26C40.1701 78.03 45.9101 55.67 46.1401 54.72C46.1697 54.5887 46.2248 54.4644 46.3023 54.3544C46.3799 54.2444 46.4783 54.1507 46.5921 54.0788C46.7059 54.0068 46.8327 53.958 46.9653 53.935C47.0979 53.912 47.2338 53.9154 47.3651 53.945C47.4964 53.9745 47.6206 54.0297 47.7307 54.1072C47.8407 54.1848 47.9343 54.2832 48.0063 54.397C48.0783 54.5107 48.1271 54.6375 48.1501 54.7702C48.173 54.9028 48.1697 55.0387 48.1401 55.17C48.0001 55.47 43.0501 75.26 15.1801 75.26Z" fill="#5094F9"/>
<path d="M77.26 80.88C74.6785 80.9367 72.1014 80.6407 69.6 80C67.2507 79.3848 64.8281 79.0954 62.4 79.14C59.9753 79.0959 57.556 79.3853 55.21 80C52.7105 80.6541 50.1333 80.9637 47.55 80.92C44.9667 80.9629 42.3896 80.6534 39.89 80C37.544 79.3853 35.1247 79.0959 32.7 79.14C30.2753 79.0959 27.856 79.3853 25.51 80C23.0105 80.6541 20.4333 80.9637 17.85 80.92C15.2667 80.9637 12.6895 80.6541 10.19 80C7.84592 79.3718 5.42659 79.069 3 79.1C2.73478 79.1 2.48043 78.9946 2.29289 78.8071C2.10536 78.6196 2 78.3652 2 78.1C2 77.8348 2.10536 77.5804 2.29289 77.3929C2.48043 77.2053 2.73478 77.1 3 77.1C5.58332 77.0563 8.16049 77.3658 10.66 78.02C13.006 78.6347 15.4253 78.924 17.85 78.88C20.2623 78.9146 22.668 78.6185 25 78C27.4995 77.3458 30.0767 77.0363 32.66 77.08C35.2433 77.0363 37.8205 77.3458 40.32 78C42.666 78.6147 45.0853 78.904 47.51 78.86C49.9481 78.9085 52.3813 78.6191 54.74 78C57.2396 77.3466 59.8167 77.037 62.4 77.08C64.9833 77.0363 67.5605 77.3458 70.06 78C72.4093 78.6152 74.8319 78.9046 77.26 78.86C79.688 78.9038 82.1106 78.6145 84.46 78C86.9595 77.3458 89.5367 77.0363 92.12 77.08C92.3852 77.08 92.6396 77.1853 92.8271 77.3729C93.0146 77.5604 93.12 77.8148 93.12 78.08C93.12 78.3452 93.0146 78.5996 92.8271 78.7871C92.6396 78.9746 92.3852 79.08 92.12 79.08C89.6919 79.0354 87.2693 79.3248 84.92 79.94C82.4214 80.6009 79.8442 80.9171 77.26 80.88Z" fill="#5094F9"/>
<path d="M77.26 87.6C74.6767 87.6437 72.0995 87.3341 69.6 86.68C67.2524 86.055 64.8289 85.7622 62.4 85.81C59.9745 85.7631 57.5543 86.0559 55.21 86.68C52.7105 87.3341 50.1333 87.6437 47.55 87.6C44.9667 87.6429 42.3896 87.3334 39.89 86.68C37.5457 86.0559 35.1255 85.7631 32.7 85.81C30.2745 85.7631 27.8543 86.0559 25.51 86.68C23.0105 87.3341 20.4333 87.6437 17.85 87.6C15.2667 87.6437 12.6895 87.3341 10.19 86.68C7.84566 86.0559 5.42552 85.7631 3 85.81C2.73478 85.81 2.48043 85.7046 2.29289 85.5171C2.10536 85.3295 2 85.0752 2 84.81C2 84.5447 2.10536 84.2904 2.29289 84.1029C2.48043 83.9153 2.73478 83.81 3 83.81C5.58332 83.7663 8.16049 84.0758 10.66 84.73C13.0043 85.354 15.4245 85.6468 17.85 85.6C20.2622 85.6439 22.6687 85.3511 25 84.73C27.4995 84.0758 30.0767 83.7663 32.66 83.81C35.2433 83.7663 37.8205 84.0758 40.32 84.73C42.6643 85.354 45.0845 85.6468 47.51 85.6C49.9356 85.6476 52.3558 85.3548 54.7 84.73C57.1996 84.0765 59.7767 83.767 62.36 83.81C64.9433 83.7663 67.5205 84.0758 70.02 84.73C72.3676 85.3549 74.7911 85.6478 77.22 85.6C79.6488 85.6467 82.0722 85.3539 84.42 84.73C86.9195 84.0758 89.4967 83.7663 92.08 83.81C92.3452 83.81 92.5996 83.9153 92.7871 84.1029C92.9746 84.2904 93.08 84.5447 93.08 84.81C93.08 85.0752 92.9746 85.3295 92.7871 85.5171C92.5996 85.7046 92.3452 85.81 92.08 85.81C89.6511 85.7622 87.2276 86.055 84.88 86.68C82.3934 87.3305 79.83 87.64 77.26 87.6Z" fill="#5094F9"/>
</svg>
