<svg width="1457" height="112" viewBox="0 0 1457 112" fill="none" xmlns="http://www.w3.org/2000/svg">
<path d="M39.3334 1C27.2001 1.93334 16.6667 3.66667 5.73341 6.46667L0.666748 7.8V23C0.666748 31.4 0.800081 38.3333 1.06675 38.3333C1.20008 38.3333 5.60008 37.1333 10.6667 35.8C37.4667 28.4667 72.4001 28.2 98.0001 35.2667C122.8 41.9333 139.467 51.1333 157.2 67.5333C182.267 90.4667 217.2 105.8 254.267 110.2C270.267 112.067 299.067 111 314.8 107.8C348.533 101.267 373.467 89.2667 396.667 68.3333C426.133 41.8 458 30.0667 500.533 30.2C541.733 30.3333 572.133 41.4 600.8 66.7333C616.533 80.6 622.4 84.6 637.467 92.0667C663.6 105.133 689.2 110.867 722 110.867C754.933 110.867 780.4 105.133 806.667 92.0667C820.933 85 828 80.0667 844 65.9333C871.867 41.5333 902.8 30.3333 943.467 30.2C986 30.0667 1018 41.9333 1047.33 68.3333C1077.2 95.4 1115.47 109.8 1160.67 111C1182.4 111.533 1196 110.067 1215.73 105.133C1243.33 98.0667 1267.2 85.4 1286.8 67.5333C1291.87 62.7333 1298.8 57 1302.13 54.7333C1341.07 28.0667 1400.53 22.3333 1448.53 40.8667C1452.53 42.3333 1456 43.4 1456.27 43.1333C1456.67 42.7333 1457.07 18.0667 1456.8 13.5333C1456.67 11.6667 1436.4 5.53334 1421.33 3C1404.8 0.066669 1373.07 0.066669 1356 3C1321.2 8.86667 1293.6 21.8 1269.2 43.8C1256.13 55.4 1247.73 61.1333 1233.2 67.9333C1202 82.4667 1159.47 85.8 1123.47 76.3333C1099.6 69.9333 1082.8 60.8667 1064.93 44.7333C1052.93 33.9333 1041.73 26.0667 1029.2 19.8C970.267 -9.66666 890.667 -4.73333 840 31.4C834.933 35.1333 826.533 41.8 821.333 46.4667C796.267 68.8667 766 80.3333 728 81.5333C686.267 83 650.4 71.1333 623.333 47C602.933 28.8667 583.6 17.4 560.533 9.93334C513.467 -5.4 457.6 -1.66666 414.8 19.8C402.267 26.0667 391.067 33.9333 379.067 44.7333C361.333 60.8667 344.533 69.8 320.8 76.2C284.933 85.8 242.133 82.6 210.8 67.9333C196.267 61.1333 187.867 55.4 174.8 43.8C169.067 38.6 160.133 31.5333 154.933 28.0667C124.4 8.06667 81.0668 -2.06666 39.3334 1Z" fill="white"/>
</svg>
